<svg xmlns="http://www.w3.org/2000/svg" xmlns:xlink="http://www.w3.org/1999/xlink" width="851" zoomAndPan="magnify" viewBox="0 0 638.25 236.249991" height="315" preserveAspectRatio="xMidYMid meet" version="1.2"><defs/><g id="b4a3288f65"><g style="fill:#000000;fill-opacity:1;"><g transform="translate(171.848005, 153.357768)"><path style="stroke:none" d="M 29.25 9.25 C 29.101562 9.101562 28.992188 8.78125 28.921875 8.28125 C 28.859375 7.78125 28.863281 7.28125 28.9375 6.78125 C 29.070312 5.5625 29.785156 4.160156 31.078125 2.578125 C 31.296875 2.296875 31.492188 2.023438 31.671875 1.765625 C 31.847656 1.515625 31.972656 1.320312 32.046875 1.1875 C 32.191406 1.039062 32.316406 0.878906 32.421875 0.703125 C 32.535156 0.523438 32.660156 0.363281 32.796875 0.21875 L 34.84375 -2.359375 L 37.21875 -5.265625 L 38.078125 -6.453125 L 38.609375 -7.09375 L 40.96875 -10.109375 L 43.234375 -13.015625 L 46.03125 -16.453125 L 46.78125 -17.421875 L 47.21875 -17.953125 L 47.96875 -18.828125 L 49.046875 -19.78125 L 51.1875 -22.484375 L 52.375 -24.09375 L 53.875 -25.8125 C 53.875 -26.09375 54.414062 -26.773438 55.5 -27.859375 L 57.21875 -29.890625 L 58.078125 -30.96875 L 59.265625 -32.375 L 59.6875 -32.90625 L 62.046875 -35.59375 L 70.125 -44.53125 L 57.859375 -43.984375 L 55.921875 -43.65625 L 48.1875 -34.84375 L 45.5 -31.828125 L 42.703125 -28.609375 L 40.875 -26.453125 L 36.5625 -21.296875 L 33.546875 -17.421875 L 32.6875 -16.234375 C 32.550781 -16.023438 32.375 -15.773438 32.15625 -15.484375 C 31.9375 -15.203125 31.757812 -14.988281 31.625 -14.84375 C 31.476562 -14.695312 31.148438 -14.28125 30.640625 -13.59375 C 30.140625 -12.914062 29.601562 -12.1875 29.03125 -11.40625 L 25.8125 -7.09375 C 25.238281 -6.238281 24.695312 -5.394531 24.1875 -4.5625 C 23.6875 -3.738281 23.40625 -3.1875 23.34375 -2.90625 C 23.269531 -2.6875 23.300781 -2.503906 23.4375 -2.359375 C 23.65625 -2.296875 23.65625 -2.15625 23.4375 -1.9375 C 23.15625 -1.570312 22.851562 -1.550781 22.53125 -1.875 C 22.207031 -2.195312 22.082031 -2.644531 22.15625 -3.21875 C 22.226562 -3.800781 22.53125 -4.519531 23.0625 -5.375 C 23.601562 -6.238281 24.375 -7.457031 25.375 -9.03125 C 25.945312 -9.820312 26.429688 -10.539062 26.828125 -11.1875 C 27.222656 -11.832031 27.421875 -12.191406 27.421875 -12.265625 C 27.566406 -12.546875 27.710938 -12.6875 27.859375 -12.6875 L 28.390625 -13.328125 L 28.71875 -13.984375 L 29.25 -14.625 L 30.21875 -15.8125 C 30.582031 -16.382812 30.976562 -16.921875 31.40625 -17.421875 C 31.832031 -17.921875 32.765625 -19.140625 34.203125 -21.078125 L 36.34375 -23.875 C 36.851562 -24.519531 37.519531 -25.34375 38.34375 -26.34375 C 39.164062 -27.351562 39.96875 -28.304688 40.75 -29.203125 C 41.539062 -30.097656 42.082031 -30.6875 42.375 -30.96875 C 42.726562 -31.1875 42.90625 -31.472656 42.90625 -31.828125 C 43.050781 -31.972656 43.125 -32.046875 43.125 -32.046875 C 43.269531 -32.046875 43.46875 -32.1875 43.71875 -32.46875 C 43.96875 -32.757812 44.453125 -33.300781 45.171875 -34.09375 L 46.03125 -35.0625 C 46.3125 -35.34375 46.722656 -35.804688 47.265625 -36.453125 C 47.804688 -37.097656 48.304688 -37.722656 48.765625 -38.328125 C 49.234375 -38.941406 49.503906 -39.285156 49.578125 -39.359375 L 50.984375 -41.078125 L 53.015625 -43.453125 L 44.84375 -42.703125 C 40.757812 -42.191406 37.101562 -41.722656 33.875 -41.296875 C 30.644531 -40.867188 28.742188 -40.617188 28.171875 -40.546875 C 27.890625 -40.546875 27.101562 -40.4375 25.8125 -40.21875 C 24.519531 -40.007812 23.441406 -39.867188 22.578125 -39.796875 C 22.367188 -39.722656 21.957031 -39.628906 21.34375 -39.515625 C 20.738281 -39.410156 20.148438 -39.285156 19.578125 -39.140625 C 18.429688 -38.859375 17.570312 -38.71875 17 -38.71875 C 16.488281 -38.5 16.054688 -38.425781 15.703125 -38.5 C 15.347656 -38.570312 15.171875 -38.644531 15.171875 -38.71875 C 15.097656 -39.144531 15.757812 -39.445312 17.15625 -39.625 C 18.550781 -39.8125 21.289062 -40.226562 25.375 -40.875 L 28.0625 -41.296875 L 35.921875 -42.375 C 36.492188 -42.445312 37.675781 -42.585938 39.46875 -42.796875 C 41.257812 -43.015625 42.875 -43.234375 44.3125 -43.453125 C 43.664062 -43.378906 43.59375 -43.378906 44.09375 -43.453125 C 44.59375 -43.523438 45.414062 -43.613281 46.5625 -43.71875 C 47.707031 -43.820312 48.960938 -43.945312 50.328125 -44.09375 C 51.691406 -44.238281 52.910156 -44.382812 53.984375 -44.53125 L 54.09375 -44.734375 L 57.859375 -48.828125 C 58.210938 -49.179688 58.550781 -49.535156 58.875 -49.890625 C 59.195312 -50.253906 59.394531 -50.472656 59.46875 -50.546875 L 60.015625 -51.1875 C 60.015625 -51.40625 60.082031 -51.515625 60.21875 -51.515625 C 60.21875 -51.515625 60.304688 -51.582031 60.484375 -51.71875 C 60.671875 -51.863281 60.835938 -52.046875 60.984375 -52.265625 L 63.234375 -54.734375 L 65.8125 -57.53125 L 66.78125 -58.5 L 71.296875 -63.125 L 73.671875 -65.5 C 73.953125 -65.78125 74.023438 -65.992188 73.890625 -66.140625 C 73.890625 -66.210938 73.925781 -66.25 74 -66.25 C 74.132812 -66.101562 74.421875 -66.28125 74.859375 -66.78125 L 77.75 -69.796875 L 79.375 -71.625 L 80.765625 -73.03125 L 81.3125 -73.78125 C 81.59375 -74.207031 81.769531 -74.421875 81.84375 -74.421875 C 82.0625 -74.421875 82.273438 -74.671875 82.484375 -75.171875 L 83.34375 -76.25 C 83.488281 -76.394531 83.578125 -76.503906 83.609375 -76.578125 C 83.648438 -76.648438 83.671875 -76.6875 83.671875 -76.6875 C 83.742188 -76.820312 83.816406 -76.941406 83.890625 -77.046875 C 83.960938 -77.160156 84 -77.253906 84 -77.328125 C 83.488281 -77.253906 83.019531 -77.144531 82.59375 -77 C 82.164062 -76.851562 81.703125 -76.710938 81.203125 -76.578125 C 81.128906 -76.648438 80.644531 -76.6875 79.75 -76.6875 C 78.851562 -76.6875 77.847656 -76.648438 76.734375 -76.578125 C 75.617188 -76.503906 74.671875 -76.394531 73.890625 -76.25 L 71.625 -76.140625 L 67.96875 -75.828125 C 65.882812 -75.679688 64.664062 -75.535156 64.3125 -75.390625 L 63.453125 -75.28125 C 62.453125 -75.207031 61.429688 -75.117188 60.390625 -75.015625 C 59.347656 -74.910156 58.753906 -74.859375 58.609375 -74.859375 C 58.535156 -74.785156 58.351562 -74.75 58.0625 -74.75 C 57.78125 -74.75 57.5 -74.75 57.21875 -74.75 C 56.570312 -74.75 56.101562 -74.675781 55.8125 -74.53125 C 55.738281 -74.53125 55.414062 -74.492188 54.84375 -74.421875 C 54.269531 -74.347656 53.59375 -74.273438 52.8125 -74.203125 L 48.609375 -73.671875 L 46.359375 -73.453125 L 41.515625 -72.703125 L 38.390625 -72.15625 C 38.242188 -72.09375 37.9375 -72.023438 37.46875 -71.953125 C 37.007812 -71.878906 36.171875 -71.695312 34.953125 -71.40625 L 31.828125 -70.875 C 31.546875 -70.800781 31.257812 -70.726562 30.96875 -70.65625 C 30.6875 -70.582031 30.507812 -70.507812 30.4375 -70.4375 C 30.4375 -70.4375 30.3125 -70.398438 30.0625 -70.328125 C 29.8125 -70.265625 29.503906 -70.195312 29.140625 -70.125 L 27.859375 -69.796875 L 27.3125 -69.6875 L 25.8125 -69.265625 L 23.546875 -68.5 C 22.972656 -68.363281 22.4375 -68.1875 21.9375 -67.96875 C 21.4375 -67.75 21.007812 -67.570312 20.65625 -67.4375 C 20.363281 -67.289062 20.179688 -67.21875 20.109375 -67.21875 C 20.035156 -67.21875 19.65625 -67.054688 18.96875 -66.734375 C 18.289062 -66.410156 17.644531 -66.085938 17.03125 -65.765625 C 16.425781 -65.441406 16.09375 -65.242188 16.03125 -65.171875 L 14.734375 -64.203125 C 14.160156 -63.847656 13.691406 -63.523438 13.328125 -63.234375 C 12.972656 -62.953125 12.617188 -62.523438 12.265625 -61.953125 C 12.046875 -61.660156 11.863281 -61.140625 11.71875 -60.390625 C 11.570312 -59.640625 11.535156 -58.972656 11.609375 -58.390625 L 11.828125 -57.21875 C 11.972656 -56.28125 12.222656 -55.421875 12.578125 -54.640625 C 12.796875 -54.128906 12.867188 -53.785156 12.796875 -53.609375 C 12.722656 -53.429688 12.507812 -53.519531 12.15625 -53.875 C 11.582031 -54.445312 11.222656 -55.34375 11.078125 -56.5625 C 11.078125 -57.144531 11.003906 -57.503906 10.859375 -57.640625 C 10.785156 -57.710938 10.75 -58.070312 10.75 -58.71875 C 10.75 -59.363281 10.800781 -60.023438 10.90625 -60.703125 C 11.019531 -61.390625 11.148438 -61.804688 11.296875 -61.953125 C 11.367188 -62.085938 11.4375 -62.226562 11.5 -62.375 C 11.570312 -62.519531 11.644531 -62.664062 11.71875 -62.8125 L 12.265625 -63.5625 C 12.398438 -63.5625 12.6875 -63.773438 13.125 -64.203125 C 13.40625 -64.492188 13.796875 -64.800781 14.296875 -65.125 C 14.804688 -65.445312 15.097656 -65.609375 15.171875 -65.609375 L 16.234375 -66.359375 C 16.671875 -66.640625 17.242188 -66.957031 17.953125 -67.3125 C 18.671875 -67.675781 19.101562 -67.859375 19.25 -67.859375 L 20.109375 -68.1875 C 21.253906 -68.757812 21.972656 -69.046875 22.265625 -69.046875 C 22.546875 -69.046875 22.722656 -69.082031 22.796875 -69.15625 L 23.984375 -69.578125 L 26.234375 -70.234375 C 26.597656 -70.367188 27.007812 -70.472656 27.46875 -70.546875 C 27.9375 -70.617188 28.316406 -70.691406 28.609375 -70.765625 C 28.890625 -70.835938 29.171875 -70.890625 29.453125 -70.921875 C 29.742188 -70.960938 29.925781 -71.019531 30 -71.09375 C 30.144531 -71.164062 30.578125 -71.269531 31.296875 -71.40625 C 32.015625 -71.550781 32.835938 -71.734375 33.765625 -71.953125 L 37.53125 -72.8125 L 38.609375 -72.921875 L 41.078125 -73.34375 L 45.921875 -74 L 49.46875 -74.53125 L 64.09375 -76.140625 C 64.8125 -76.140625 65.316406 -76.210938 65.609375 -76.359375 C 65.742188 -76.429688 65.972656 -76.46875 66.296875 -76.46875 C 66.617188 -76.46875 66.960938 -76.46875 67.328125 -76.46875 C 68.046875 -76.46875 68.90625 -76.539062 69.90625 -76.6875 L 75.390625 -77.21875 L 82.484375 -77.75 C 82.921875 -77.75 83.425781 -77.894531 84 -78.1875 C 84.570312 -78.40625 84.984375 -78.546875 85.234375 -78.609375 C 85.484375 -78.679688 85.75 -78.753906 86.03125 -78.828125 C 86.175781 -78.828125 86.300781 -78.84375 86.40625 -78.875 C 86.519531 -78.914062 86.613281 -78.9375 86.6875 -78.9375 C 86.757812 -79.007812 87.007812 -79.046875 87.4375 -79.046875 C 88.289062 -79.191406 88.828125 -79.082031 89.046875 -78.71875 C 89.191406 -78.644531 89.171875 -78.5 88.984375 -78.28125 C 88.804688 -78.070312 88.539062 -77.894531 88.1875 -77.75 C 87.90625 -77.6875 87.421875 -77.457031 86.734375 -77.0625 C 86.054688 -76.664062 85.71875 -76.429688 85.71875 -76.359375 C 85.71875 -76.285156 85.46875 -76 84.96875 -75.5 C 84.53125 -75.070312 84.3125 -74.785156 84.3125 -74.640625 C 84.3125 -74.492188 84.242188 -74.421875 84.109375 -74.421875 C 83.960938 -74.421875 83.816406 -74.242188 83.671875 -73.890625 C 83.523438 -73.453125 83.273438 -73.128906 82.921875 -72.921875 L 82.484375 -72.484375 C 82.484375 -72.410156 82.300781 -72.191406 81.9375 -71.828125 C 81.582031 -71.472656 81.15625 -71.007812 80.65625 -70.4375 L 75.390625 -65.0625 C 74.460938 -64.132812 74 -63.597656 74 -63.453125 C 74 -63.453125 73.976562 -63.414062 73.9375 -63.34375 C 73.90625 -63.269531 73.851562 -63.234375 73.78125 -63.234375 C 73.632812 -63.085938 73.238281 -62.691406 72.59375 -62.046875 C 71.945312 -61.410156 71.25 -60.695312 70.5 -59.90625 C 69.75 -59.113281 69.082031 -58.429688 68.5 -57.859375 C 67.925781 -57.285156 67.640625 -56.960938 67.640625 -56.890625 L 66.46875 -55.609375 C 66.175781 -55.316406 65.90625 -55.023438 65.65625 -54.734375 C 65.40625 -54.453125 65.28125 -54.3125 65.28125 -54.3125 C 65.28125 -54.164062 65.066406 -53.953125 64.640625 -53.671875 L 62.046875 -50.875 C 61.546875 -50.226562 61.0625 -49.648438 60.59375 -49.140625 C 60.132812 -48.640625 59.832031 -48.320312 59.6875 -48.1875 L 59.046875 -47.53125 C 58.609375 -46.957031 58.15625 -46.4375 57.6875 -45.96875 C 57.226562 -45.507812 56.890625 -45.132812 56.671875 -44.84375 L 71.09375 -45.59375 C 71.375 -45.882812 71.710938 -46.226562 72.109375 -46.625 C 72.503906 -47.019531 72.628906 -47.179688 72.484375 -47.109375 C 72.773438 -47.390625 72.921875 -47.566406 72.921875 -47.640625 C 72.921875 -47.785156 72.988281 -47.859375 73.125 -47.859375 C 73.125 -47.859375 73.269531 -47.984375 73.5625 -48.234375 C 73.851562 -48.484375 74.140625 -48.789062 74.421875 -49.15625 L 75.921875 -50.765625 C 76.429688 -51.265625 76.9375 -51.816406 77.4375 -52.421875 C 77.9375 -53.035156 78.148438 -53.378906 78.078125 -53.453125 C 78.078125 -53.523438 78.113281 -53.5625 78.1875 -53.5625 C 78.257812 -53.488281 78.582031 -53.703125 79.15625 -54.203125 C 79.726562 -54.703125 80.085938 -55.097656 80.234375 -55.390625 L 80.984375 -56.140625 C 81.265625 -56.359375 81.515625 -56.628906 81.734375 -56.953125 C 81.953125 -57.273438 82.421875 -57.863281 83.140625 -58.71875 C 83.273438 -58.863281 83.414062 -59.023438 83.5625 -59.203125 C 83.707031 -59.378906 83.816406 -59.503906 83.890625 -59.578125 C 84.171875 -59.722656 84.738281 -60.28125 85.59375 -61.25 C 86.457031 -62.21875 87.320312 -63.203125 88.1875 -64.203125 L 89.6875 -65.921875 L 90.65625 -66.890625 L 92.921875 -69.375 C 93.273438 -69.800781 93.703125 -70.316406 94.203125 -70.921875 C 94.710938 -71.535156 95.109375 -72.054688 95.390625 -72.484375 C 96.179688 -73.628906 96.6875 -74.203125 96.90625 -74.203125 C 97.113281 -74.273438 97.328125 -74.238281 97.546875 -74.09375 C 97.765625 -73.957031 97.875 -73.816406 97.875 -73.671875 C 97.726562 -72.878906 96.1875 -70.90625 93.25 -67.75 C 91.664062 -66.101562 90.441406 -64.773438 89.578125 -63.765625 C 88.722656 -62.765625 88.007812 -61.90625 87.4375 -61.1875 C 86.71875 -60.40625 86.234375 -59.890625 85.984375 -59.640625 C 85.734375 -59.390625 85.394531 -59.007812 84.96875 -58.5 L 83.234375 -56.5625 C 82.953125 -56.207031 82.578125 -55.78125 82.109375 -55.28125 C 81.640625 -54.78125 81.226562 -54.382812 80.875 -54.09375 L 79.796875 -53.015625 C 79.796875 -52.941406 79.546875 -52.65625 79.046875 -52.15625 L 77.21875 -50.21875 L 76.03125 -48.828125 L 73.234375 -45.703125 L 74.09375 -45.703125 C 74.8125 -45.773438 75.566406 -45.828125 76.359375 -45.859375 C 77.148438 -45.898438 77.6875 -45.847656 77.96875 -45.703125 L 80.984375 -45.921875 L 90.453125 -45.8125 C 90.515625 -45.8125 90.847656 -45.847656 91.453125 -45.921875 C 92.066406 -45.992188 92.734375 -45.992188 93.453125 -45.921875 L 103.78125 -45.390625 C 103.78125 -45.390625 103.90625 -45.367188 104.15625 -45.328125 C 104.40625 -45.296875 104.675781 -45.28125 104.96875 -45.28125 L 109.484375 -44.953125 C 111.347656 -44.953125 112.28125 -44.628906 112.28125 -43.984375 C 112.425781 -43.628906 112.242188 -43.34375 111.734375 -43.125 L 110.875 -42.90625 C 110.300781 -42.832031 110.015625 -42.976562 110.015625 -43.34375 C 109.878906 -43.625 109.554688 -43.765625 109.046875 -43.765625 C 107.546875 -43.910156 106.039062 -44.085938 104.53125 -44.296875 C 103.03125 -44.515625 101.238281 -44.710938 99.15625 -44.890625 C 97.082031 -45.078125 94.429688 -45.171875 91.203125 -45.171875 C 90.910156 -45.097656 90.617188 -45.0625 90.328125 -45.0625 C 90.046875 -45.0625 89.867188 -45.0625 89.796875 -45.0625 C 89.796875 -45.0625 89.1875 -45.039062 87.96875 -45 C 86.75 -44.96875 85.492188 -44.953125 84.203125 -44.953125 C 82.910156 -44.953125 82.085938 -44.988281 81.734375 -45.0625 L 77.96875 -44.84375 C 77.757812 -44.988281 76.988281 -45.023438 75.65625 -44.953125 C 74.332031 -44.878906 73.164062 -44.769531 72.15625 -44.625 L 72.0625 -44.625 C 71.84375 -44.5625 71.5 -44.207031 71.03125 -43.5625 C 70.5625 -42.914062 70.363281 -42.554688 70.4375 -42.484375 C 70.363281 -42.484375 70.296875 -42.445312 70.234375 -42.375 C 70.085938 -42.300781 69.851562 -42.101562 69.53125 -41.78125 C 69.207031 -41.457031 68.507812 -40.6875 67.4375 -39.46875 C 66.425781 -38.46875 65.921875 -37.859375 65.921875 -37.640625 C 65.992188 -37.566406 65.757812 -37.296875 65.21875 -36.828125 C 64.6875 -36.367188 64.132812 -35.851562 63.5625 -35.28125 C 62.988281 -34.632812 62.253906 -33.789062 61.359375 -32.75 C 60.460938 -31.707031 59.367188 -30.398438 58.078125 -28.828125 L 55.609375 -25.921875 C 55.316406 -25.492188 55.046875 -25.117188 54.796875 -24.796875 C 54.546875 -24.472656 54.421875 -24.273438 54.421875 -24.203125 C 54.347656 -24.128906 54.253906 -24 54.140625 -23.8125 C 54.035156 -23.632812 53.878906 -23.476562 53.671875 -23.34375 L 52.484375 -21.9375 L 51.40625 -20.65625 L 48.9375 -17.53125 L 48.390625 -16.890625 L 48.390625 -17 L 47.75 -16.234375 L 46.5625 -14.734375 C 46.425781 -14.585938 45.90625 -13.976562 45 -12.90625 C 44.101562 -11.832031 43.082031 -10.578125 41.9375 -9.140625 C 40.789062 -7.703125 39.644531 -6.234375 38.5 -4.734375 L 36.671875 -2.578125 C 36.171875 -1.929688 35.613281 -1.234375 35 -0.484375 C 34.394531 0.265625 33.59375 1.394531 32.59375 2.90625 L 31.515625 4.1875 C 31.222656 4.550781 30.894531 5.195312 30.53125 6.125 C 30.175781 7.0625 29.960938 7.816406 29.890625 8.390625 C 29.828125 8.890625 29.757812 9.175781 29.6875 9.25 C 29.613281 9.320312 29.46875 9.320312 29.25 9.25 Z M 29.25 9.25 "/></g></g><g style="fill:#000000;fill-opacity:1;"><g transform="translate(243.256436, 153.357768)"><path style="stroke:none" d="M -2.265625 -29.140625 L -2.578125 -29.6875 C -2.648438 -29.96875 -2.664062 -30.25 -2.625 -30.53125 C -2.59375 -30.820312 -2.539062 -31.078125 -2.46875 -31.296875 C -2.332031 -31.796875 -1.8125 -32.492188 -0.90625 -33.390625 C -0.0078125 -34.285156 0.613281 -34.953125 0.96875 -35.390625 C 1.320312 -35.671875 1.570312 -35.738281 1.71875 -35.59375 C 2.082031 -35.457031 1.972656 -35.03125 1.390625 -34.3125 C 0.890625 -33.738281 0.25 -32.984375 -0.53125 -32.046875 C -1.320312 -31.117188 -1.679688 -30.546875 -1.609375 -30.328125 C -1.460938 -30.035156 -1.066406 -30.066406 -0.421875 -30.421875 C 0.210938 -30.785156 0.90625 -31.289062 1.65625 -31.9375 C 2.414062 -32.582031 3.046875 -33.191406 3.546875 -33.765625 L 3.765625 -34.09375 L 4.40625 -34.734375 L 4.625 -35.0625 C 4.976562 -35.414062 5.300781 -35.554688 5.59375 -35.484375 C 6.019531 -35.347656 6 -34.972656 5.53125 -34.359375 C 5.070312 -33.753906 4.59375 -33.164062 4.09375 -32.59375 C 3.226562 -31.507812 2.9375 -30.753906 3.21875 -30.328125 C 3.289062 -30.035156 3.503906 -29.941406 3.859375 -30.046875 C 4.222656 -30.160156 4.40625 -30.21875 4.40625 -30.21875 C 5.195312 -30.363281 6.378906 -30.757812 7.953125 -31.40625 C 9.535156 -32.050781 11.507812 -32.875 13.875 -33.875 L 14.09375 -33.984375 L 14.296875 -33.984375 L 14.515625 -33.875 C 14.660156 -33.800781 14.710938 -33.710938 14.671875 -33.609375 C 14.640625 -33.503906 14.550781 -33.414062 14.40625 -33.34375 L 13.125 -32.6875 L 8.390625 -30.546875 C 7.390625 -30.109375 6.472656 -29.765625 5.640625 -29.515625 C 4.816406 -29.265625 4.40625 -29.140625 4.40625 -29.140625 L 4.09375 -29.140625 C 3.15625 -28.929688 2.578125 -29.039062 2.359375 -29.46875 C 2.148438 -29.894531 2.082031 -30.359375 2.15625 -30.859375 L 2.15625 -31.296875 L 2.046875 -31.1875 L 1.296875 -30.546875 C 1.003906 -30.328125 0.554688 -30.035156 -0.046875 -29.671875 C -0.660156 -29.316406 -1.179688 -29.140625 -1.609375 -29.140625 Z M -2.265625 -29.140625 "/></g></g><g style="fill:#000000;fill-opacity:1;"><g transform="translate(257.559629, 153.357768)"><path style="stroke:none" d="M -35.921875 2.6875 C -36.785156 2.757812 -37.179688 2.363281 -37.109375 1.5 L -37 0.75 C -36.632812 0.320312 -36.414062 -0.140625 -36.34375 -0.640625 C -36.207031 -0.785156 -35.992188 -1.070312 -35.703125 -1.5 L -35.59375 -1.5 C -35.457031 -1.644531 -35.390625 -1.789062 -35.390625 -1.9375 C -35.316406 -2.15625 -34.882812 -2.726562 -34.09375 -3.65625 C -33.300781 -4.59375 -32.382812 -5.578125 -31.34375 -6.609375 C -30.3125 -7.648438 -29.4375 -8.421875 -28.71875 -8.921875 C -28 -9.492188 -27.226562 -10.082031 -26.40625 -10.6875 C -25.582031 -11.300781 -25.023438 -11.679688 -24.734375 -11.828125 L -23.125 -12.796875 C -22.1875 -13.441406 -21.539062 -13.835938 -21.1875 -13.984375 C -20.757812 -14.128906 -20.546875 -14.269531 -20.546875 -14.40625 C -20.546875 -14.40625 -20.523438 -14.421875 -20.484375 -14.453125 C -20.453125 -14.492188 -20.398438 -14.515625 -20.328125 -14.515625 C -20.109375 -14.515625 -19.675781 -14.734375 -19.03125 -15.171875 C -18.53125 -15.453125 -17.671875 -15.878906 -16.453125 -16.453125 C -15.234375 -17.023438 -14.101562 -17.5625 -13.0625 -18.0625 C -12.019531 -18.570312 -11.46875 -18.789062 -11.40625 -18.71875 C -11.332031 -18.71875 -11.222656 -18.75 -11.078125 -18.8125 C -10.929688 -18.882812 -10.785156 -18.957031 -10.640625 -19.03125 C -10.503906 -19.175781 -10.304688 -19.285156 -10.046875 -19.359375 C -9.796875 -19.429688 -9.566406 -19.503906 -9.359375 -19.578125 C -8.992188 -19.710938 -8.5625 -19.941406 -8.0625 -20.265625 C -7.5625 -20.585938 -6.953125 -21.253906 -6.234375 -22.265625 C -5.804688 -22.835938 -5.125 -23.660156 -4.1875 -24.734375 C -3.257812 -25.804688 -2.328125 -26.914062 -1.390625 -28.0625 C -0.460938 -29.21875 0.300781 -30.171875 0.90625 -30.921875 C 1.519531 -31.671875 1.753906 -32.007812 1.609375 -31.9375 L -0.96875 -30.859375 C -1.113281 -30.796875 -1.453125 -30.78125 -1.984375 -30.8125 C -2.523438 -30.84375 -2.867188 -30.894531 -3.015625 -30.96875 C -3.148438 -31.113281 -3.21875 -31.347656 -3.21875 -31.671875 C -3.21875 -31.992188 -3.113281 -32.226562 -2.90625 -32.375 L -2.46875 -32.796875 C -2.332031 -32.867188 -2.226562 -32.90625 -2.15625 -32.90625 C -2.082031 -32.90625 -2.007812 -32.941406 -1.9375 -33.015625 L -0.96875 -33.765625 C -0.613281 -33.984375 -0.113281 -34.269531 0.53125 -34.625 C 1.175781 -34.988281 1.679688 -35.207031 2.046875 -35.28125 C 3.617188 -35.78125 4.40625 -35.523438 4.40625 -34.515625 C 4.40625 -34.378906 4.421875 -34.253906 4.453125 -34.140625 C 4.492188 -34.035156 4.515625 -33.945312 4.515625 -33.875 C 4.515625 -33.726562 4.335938 -33.40625 3.984375 -32.90625 L 2.796875 -31.078125 L 1.390625 -29.25 C 1.179688 -29.039062 0.71875 -28.503906 0 -27.640625 C -0.71875 -26.773438 -1.523438 -25.84375 -2.421875 -24.84375 C -3.316406 -23.84375 -4.050781 -22.984375 -4.625 -22.265625 C -5.195312 -21.546875 -5.445312 -21.222656 -5.375 -21.296875 L -4.1875 -21.71875 L -2.796875 -22.046875 L -0.328125 -22.90625 C 1.109375 -23.40625 2.347656 -23.796875 3.390625 -24.078125 C 4.429688 -24.367188 5.488281 -24.660156 6.5625 -24.953125 L 12.578125 -26.453125 L 14.953125 -27 C 15.523438 -27.132812 16.148438 -27.238281 16.828125 -27.3125 C 17.515625 -27.382812 18 -27.382812 18.28125 -27.3125 C 18.851562 -27.175781 19 -26.890625 18.71875 -26.453125 C 18.5 -26.242188 18.351562 -26.140625 18.28125 -26.140625 L 17.3125 -25.703125 C 16.8125 -25.484375 16.414062 -25.410156 16.125 -25.484375 C 15.695312 -25.628906 15.628906 -25.847656 15.921875 -26.140625 C 16.054688 -26.273438 16.050781 -26.359375 15.90625 -26.390625 C 15.769531 -26.429688 15.378906 -26.378906 14.734375 -26.234375 C 14.304688 -26.171875 13.875 -26.101562 13.4375 -26.03125 C 13.007812 -25.957031 12.6875 -25.882812 12.46875 -25.8125 L 2.578125 -23.234375 C 2.296875 -23.160156 2.046875 -23.085938 1.828125 -23.015625 C 1.609375 -22.941406 1.460938 -22.90625 1.390625 -22.90625 C 1.253906 -22.757812 1.003906 -22.6875 0.640625 -22.6875 C 0.566406 -22.613281 0.441406 -22.5625 0.265625 -22.53125 C 0.0859375 -22.5 -0.0351562 -22.445312 -0.109375 -22.375 C -0.390625 -22.226562 -0.566406 -22.191406 -0.640625 -22.265625 C -0.785156 -22.265625 -0.894531 -22.226562 -0.96875 -22.15625 C -1.1875 -21.9375 -1.472656 -21.789062 -1.828125 -21.71875 C -2.828125 -21.4375 -3.863281 -21.039062 -4.9375 -20.53125 C -6.019531 -20.03125 -6.632812 -19.675781 -6.78125 -19.46875 C -6.851562 -19.394531 -7.082031 -19.175781 -7.46875 -18.8125 C -7.863281 -18.457031 -8.28125 -17.992188 -8.71875 -17.421875 C -9.570312 -16.421875 -10.804688 -15.128906 -12.421875 -13.546875 C -14.035156 -11.972656 -15.414062 -10.71875 -16.5625 -9.78125 L -21.609375 -5.703125 L -26.140625 -2.265625 L -28.609375 -0.53125 L -29.6875 0.109375 L -31.1875 0.96875 C -31.976562 1.394531 -32.820312 1.769531 -33.71875 2.09375 C -34.613281 2.414062 -35.347656 2.613281 -35.921875 2.6875 Z M -1.71875 -31.71875 C -1.363281 -31.71875 -0.804688 -31.863281 -0.046875 -32.15625 C 0.703125 -32.445312 1.398438 -32.785156 2.046875 -33.171875 C 2.691406 -33.566406 3.015625 -33.835938 3.015625 -33.984375 C 3.015625 -34.128906 2.796875 -34.179688 2.359375 -34.140625 C 1.929688 -34.109375 1.503906 -33.984375 1.078125 -33.765625 C 0.578125 -33.554688 0.0390625 -33.269531 -0.53125 -32.90625 C -1.101562 -32.550781 -1.5 -32.265625 -1.71875 -32.046875 C -1.9375 -31.828125 -1.9375 -31.71875 -1.71875 -31.71875 Z M -36.140625 1.828125 L -34.625 1.390625 C -33.90625 1.109375 -33.222656 0.804688 -32.578125 0.484375 C -31.941406 0.160156 -31.191406 -0.285156 -30.328125 -0.859375 C -29.535156 -1.359375 -29.101562 -1.609375 -29.03125 -1.609375 C -28.96875 -1.609375 -28.863281 -1.679688 -28.71875 -1.828125 C -28.71875 -1.972656 -28.644531 -2.046875 -28.5 -2.046875 C -28.425781 -2.046875 -28.066406 -2.257812 -27.421875 -2.6875 C -26.773438 -3.113281 -26.09375 -3.578125 -25.375 -4.078125 C -24.664062 -4.585938 -24.203125 -4.945312 -23.984375 -5.15625 L -23.125 -5.8125 C -22.695312 -6.09375 -22.265625 -6.453125 -21.828125 -6.890625 L -18.71875 -9.671875 C -16.351562 -11.828125 -14.328125 -13.726562 -12.640625 -15.375 C -10.953125 -17.03125 -10.109375 -18 -10.109375 -18.28125 C -10.109375 -18.28125 -10.085938 -18.296875 -10.046875 -18.328125 C -10.015625 -18.367188 -9.960938 -18.390625 -9.890625 -18.390625 C -9.890625 -18.390625 -9.867188 -18.40625 -9.828125 -18.4375 C -9.796875 -18.476562 -9.78125 -18.535156 -9.78125 -18.609375 C -9.78125 -18.753906 -9.832031 -18.804688 -9.9375 -18.765625 C -10.050781 -18.734375 -10.394531 -18.609375 -10.96875 -18.390625 L -12.375 -17.859375 C -12.582031 -17.785156 -12.789062 -17.691406 -13 -17.578125 C -13.21875 -17.472656 -13.328125 -17.382812 -13.328125 -17.3125 L -13.765625 -17.203125 C -13.984375 -17.203125 -14.128906 -17.164062 -14.203125 -17.09375 C -14.203125 -17.03125 -14.429688 -16.890625 -14.890625 -16.671875 C -15.359375 -16.453125 -15.878906 -16.203125 -16.453125 -15.921875 C -17.097656 -15.628906 -17.722656 -15.300781 -18.328125 -14.9375 C -18.941406 -14.582031 -19.359375 -14.335938 -19.578125 -14.203125 L -20.546875 -13.65625 C -20.617188 -13.65625 -21.046875 -13.40625 -21.828125 -12.90625 C -22.617188 -12.40625 -23.460938 -11.867188 -24.359375 -11.296875 C -25.253906 -10.722656 -25.914062 -10.289062 -26.34375 -10 C -27.488281 -9.070312 -28.3125 -8.410156 -28.8125 -8.015625 C -29.320312 -7.617188 -30.078125 -6.953125 -31.078125 -6.015625 C -32.148438 -4.941406 -33.007812 -3.972656 -33.65625 -3.109375 C -34.300781 -2.253906 -34.984375 -1.21875 -35.703125 0 C -36.203125 1.144531 -36.347656 1.753906 -36.140625 1.828125 Z M -36.140625 1.828125 "/></g></g><g style="fill:#000000;fill-opacity:1;"><g transform="translate(269.927052, 153.357768)"><path style="stroke:none" d="M -1.296875 -29.25 C -1.722656 -29.175781 -1.988281 -29.15625 -2.09375 -29.1875 C -2.207031 -29.226562 -2.332031 -29.359375 -2.46875 -29.578125 C -2.757812 -30.003906 -2.707031 -30.613281 -2.3125 -31.40625 C -1.914062 -32.195312 -1.644531 -32.660156 -1.5 -32.796875 L 0.328125 -34.625 L 1.1875 -34.953125 L 1.390625 -34.84375 L 2.796875 -34.734375 C 3.148438 -34.734375 3.398438 -34.59375 3.546875 -34.3125 C 3.617188 -34.238281 3.65625 -34.09375 3.65625 -33.875 L 3.65625 -32.90625 C 3.945312 -32.832031 4.234375 -32.726562 4.515625 -32.59375 C 5.160156 -32.375 5.953125 -32.265625 6.890625 -32.265625 C 8.742188 -32.265625 10.296875 -32.441406 11.546875 -32.796875 C 12.804688 -33.160156 13.941406 -33.554688 14.953125 -33.984375 C 15.160156 -34.203125 15.335938 -34.164062 15.484375 -33.875 C 15.628906 -33.65625 15.554688 -33.476562 15.265625 -33.34375 L 14.296875 -32.90625 C 13.148438 -32.40625 11.859375 -32.046875 10.421875 -31.828125 C 8.992188 -31.617188 7.882812 -31.515625 7.09375 -31.515625 C 5.664062 -31.515625 4.410156 -31.617188 3.328125 -31.828125 L 3.015625 -31.71875 C 2.722656 -31.289062 2.128906 -30.769531 1.234375 -30.15625 C 0.335938 -29.550781 -0.503906 -29.25 -1.296875 -29.25 Z M 2.15625 -33.453125 C 2.289062 -33.378906 2.359375 -33.410156 2.359375 -33.546875 C 2.296875 -33.546875 2.242188 -33.5625 2.203125 -33.59375 C 2.171875 -33.632812 2.117188 -33.65625 2.046875 -33.65625 C 1.828125 -33.65625 1.863281 -33.585938 2.15625 -33.453125 Z M -0.96875 -30.21875 C -0.894531 -30.21875 -0.675781 -30.234375 -0.3125 -30.265625 C 0.0390625 -30.304688 0.46875 -30.539062 0.96875 -30.96875 C 1.6875 -31.539062 2.023438 -31.898438 1.984375 -32.046875 C 1.953125 -32.191406 1.898438 -32.300781 1.828125 -32.375 L 1.1875 -32.6875 L 0.75 -33.015625 C 0.601562 -33.015625 0.441406 -32.957031 0.265625 -32.84375 C 0.0859375 -32.738281 -0.175781 -32.472656 -0.53125 -32.046875 C -1.039062 -31.398438 -1.257812 -30.929688 -1.1875 -30.640625 C -1.113281 -30.359375 -1.039062 -30.21875 -0.96875 -30.21875 Z M -0.96875 -30.21875 "/></g></g><g style="fill:#000000;fill-opacity:1;"><g transform="translate(277.498164, 153.357768)"><path style="stroke:none" d="M 31.828125 6.890625 C 31.691406 6.816406 31.53125 6.78125 31.34375 6.78125 C 31.164062 6.78125 31.039062 6.78125 30.96875 6.78125 C 30.832031 6.851562 30.347656 6.796875 29.515625 6.609375 C 28.691406 6.429688 27.78125 6.179688 26.78125 5.859375 C 25.78125 5.535156 24.921875 5.269531 24.203125 5.0625 L 19.890625 3.328125 L 18.609375 2.6875 C 17.023438 1.894531 15.800781 1.191406 14.9375 0.578125 C 14.082031 -0.0234375 13.257812 -0.863281 12.46875 -1.9375 L 11.609375 -3.015625 L 11.609375 -3.125 L 11.296875 -4.1875 C 10.078125 -7.414062 11.046875 -10.71875 14.203125 -14.09375 C 14.984375 -15.09375 15.644531 -15.789062 16.1875 -16.1875 C 16.726562 -16.582031 17.710938 -17.242188 19.140625 -18.171875 C 20.722656 -19.242188 22.085938 -20.035156 23.234375 -20.546875 L 26.453125 -21.828125 C 26.890625 -22.046875 27.425781 -22.257812 28.0625 -22.46875 C 28.707031 -22.6875 29.25 -22.867188 29.6875 -23.015625 C 30.757812 -23.234375 31.40625 -23.445312 31.625 -23.65625 C 31.6875 -23.65625 31.828125 -23.691406 32.046875 -23.765625 C 32.265625 -23.835938 32.515625 -23.910156 32.796875 -23.984375 L 34.84375 -24.40625 C 36.488281 -24.84375 37.582031 -25.128906 38.125 -25.265625 C 38.664062 -25.410156 39.1875 -25.519531 39.6875 -25.59375 C 41.050781 -25.8125 41.800781 -25.992188 41.9375 -26.140625 C 41.9375 -26.140625 41.972656 -26.15625 42.046875 -26.1875 C 42.117188 -26.21875 42.191406 -26.234375 42.265625 -26.234375 C 42.410156 -26.171875 42.675781 -26.15625 43.0625 -26.1875 C 43.457031 -26.21875 43.691406 -26.269531 43.765625 -26.34375 L 45.171875 -26.5625 C 45.453125 -26.5625 45.71875 -26.578125 45.96875 -26.609375 C 46.226562 -26.648438 46.390625 -26.671875 46.453125 -26.671875 C 46.597656 -26.742188 46.9375 -26.832031 47.46875 -26.9375 C 48.007812 -27.050781 48.351562 -27.109375 48.5 -27.109375 L 50.546875 -27.3125 C 53.628906 -27.8125 56.242188 -28.171875 58.390625 -28.390625 C 60.546875 -28.609375 62.554688 -28.71875 64.421875 -28.71875 C 67.359375 -28.789062 69.203125 -28.769531 69.953125 -28.65625 C 70.710938 -28.550781 71.019531 -28.320312 70.875 -27.96875 C 70.875 -27.75 70.550781 -27.460938 69.90625 -27.109375 C 69.6875 -27.035156 69.46875 -27.050781 69.25 -27.15625 C 69.039062 -27.257812 68.972656 -27.382812 69.046875 -27.53125 C 69.046875 -27.675781 68.898438 -27.765625 68.609375 -27.796875 C 68.328125 -27.835938 67.539062 -27.859375 66.25 -27.859375 C 64.601562 -27.859375 63.203125 -27.859375 62.046875 -27.859375 C 60.898438 -27.859375 59.972656 -27.785156 59.265625 -27.640625 C 58.898438 -27.566406 58.519531 -27.507812 58.125 -27.46875 C 57.726562 -27.4375 57.460938 -27.421875 57.328125 -27.421875 C 57.035156 -27.421875 56.640625 -27.398438 56.140625 -27.359375 C 55.640625 -27.328125 55.316406 -27.242188 55.171875 -27.109375 C 55.097656 -27.109375 55.003906 -27.085938 54.890625 -27.046875 C 54.785156 -27.015625 54.664062 -27 54.53125 -27 L 53.765625 -27 C 53.484375 -26.925781 53.019531 -26.851562 52.375 -26.78125 C 51.726562 -26.707031 51.265625 -26.671875 50.984375 -26.671875 C 50.617188 -26.671875 50.078125 -26.597656 49.359375 -26.453125 L 48.1875 -26.234375 C 48.113281 -26.234375 47.84375 -26.195312 47.375 -26.125 C 46.90625 -26.0625 46.3125 -25.957031 45.59375 -25.8125 L 44.734375 -25.703125 C 44.453125 -25.703125 44.203125 -25.664062 43.984375 -25.59375 C 43.765625 -25.519531 43.265625 -25.414062 42.484375 -25.28125 L 41.1875 -25.0625 L 38.71875 -24.515625 C 38.144531 -24.441406 37.300781 -24.28125 36.1875 -24.03125 C 35.070312 -23.78125 33.976562 -23.507812 32.90625 -23.21875 C 31.832031 -22.9375 31.082031 -22.691406 30.65625 -22.484375 L 28.71875 -21.828125 C 28.425781 -21.753906 27.90625 -21.570312 27.15625 -21.28125 C 26.40625 -21 25.722656 -20.734375 25.109375 -20.484375 C 24.503906 -20.234375 24.164062 -20.070312 24.09375 -20 L 23.234375 -19.578125 C 22.585938 -19.285156 21.757812 -18.832031 20.75 -18.21875 C 19.75 -17.613281 18.460938 -16.738281 16.890625 -15.59375 C 16.671875 -15.445312 16.273438 -15.085938 15.703125 -14.515625 C 15.128906 -13.941406 14.585938 -13.382812 14.078125 -12.84375 C 13.578125 -12.3125 13.328125 -11.972656 13.328125 -11.828125 C 13.328125 -11.753906 13.257812 -11.578125 13.125 -11.296875 C 12.625 -10.796875 12.226562 -10.113281 11.9375 -9.25 C 11.644531 -8.382812 11.5 -7.5625 11.5 -6.78125 C 11.5 -6.269531 11.609375 -5.582031 11.828125 -4.71875 C 12.046875 -3.863281 12.296875 -3.296875 12.578125 -3.015625 L 13.4375 -1.828125 C 14.007812 -1.109375 14.796875 -0.375 15.796875 0.375 C 16.804688 1.125 17.632812 1.570312 18.28125 1.71875 L 19.140625 2.15625 C 19.285156 2.226562 19.609375 2.390625 20.109375 2.640625 C 20.609375 2.890625 21.144531 3.117188 21.71875 3.328125 L 24.515625 4.515625 C 27.816406 5.804688 30.796875 6.414062 33.453125 6.34375 L 35.0625 6.34375 C 35.488281 6.34375 36.238281 6.304688 37.3125 6.234375 C 38.394531 6.160156 39.472656 6.070312 40.546875 5.96875 C 41.617188 5.863281 42.40625 5.773438 42.90625 5.703125 L 44.734375 5.265625 L 46.78125 4.84375 L 48.71875 4.40625 L 50.109375 4.1875 C 50.253906 4.1875 50.738281 4.039062 51.5625 3.75 C 52.394531 3.46875 52.988281 3.289062 53.34375 3.21875 L 54.09375 2.90625 C 54.164062 2.90625 54.628906 2.742188 55.484375 2.421875 C 56.347656 2.097656 57.226562 1.738281 58.125 1.34375 C 59.019531 0.945312 59.539062 0.710938 59.6875 0.640625 L 60.765625 0 C 61.335938 -0.351562 61.945312 -0.726562 62.59375 -1.125 C 63.238281 -1.519531 63.738281 -1.898438 64.09375 -2.265625 L 65.609375 -3.328125 C 65.890625 -3.472656 66.191406 -3.671875 66.515625 -3.921875 C 66.835938 -4.171875 67.070312 -4.40625 67.21875 -4.625 L 68.1875 -5.375 C 68.46875 -5.59375 68.96875 -6.023438 69.6875 -6.671875 C 70.40625 -7.316406 70.765625 -7.675781 70.765625 -7.75 C 70.765625 -7.882812 70.910156 -8.023438 71.203125 -8.171875 C 71.554688 -8.390625 71.929688 -8.691406 72.328125 -9.078125 C 72.722656 -9.472656 72.921875 -9.707031 72.921875 -9.78125 C 72.921875 -9.925781 73.132812 -10.144531 73.5625 -10.4375 C 73.988281 -10.789062 74.253906 -11.003906 74.359375 -11.078125 C 74.472656 -11.148438 74.53125 -11.222656 74.53125 -11.296875 L 74.953125 -11.71875 C 75.171875 -11.9375 75.351562 -12.1875 75.5 -12.46875 C 75.5 -12.539062 75.515625 -12.59375 75.546875 -12.625 C 75.585938 -12.664062 75.609375 -12.6875 75.609375 -12.6875 C 75.679688 -12.613281 75.984375 -12.847656 76.515625 -13.390625 C 77.054688 -13.929688 77.46875 -14.414062 77.75 -14.84375 C 77.820312 -14.988281 77.894531 -15.078125 77.96875 -15.109375 C 78.039062 -15.148438 78.078125 -15.171875 78.078125 -15.171875 C 78.222656 -15.171875 78.296875 -15.238281 78.296875 -15.375 C 78.296875 -15.519531 78.367188 -15.59375 78.515625 -15.59375 C 78.578125 -15.59375 78.679688 -15.664062 78.828125 -15.8125 L 80.125 -17.421875 L 81.09375 -18.5 L 82.8125 -20.546875 C 84.457031 -22.472656 85.28125 -23.4375 85.28125 -23.4375 C 85.425781 -23.582031 85.5 -23.726562 85.5 -23.875 C 85.5 -24.019531 85.570312 -24.09375 85.71875 -24.09375 C 85.71875 -24.09375 85.84375 -24.234375 86.09375 -24.515625 C 86.34375 -24.804688 86.609375 -25.128906 86.890625 -25.484375 C 87.253906 -25.921875 87.597656 -26.351562 87.921875 -26.78125 C 88.242188 -27.207031 88.507812 -27.492188 88.71875 -27.640625 C 89.15625 -28.210938 89.375 -28.535156 89.375 -28.609375 C 89.519531 -28.753906 89.59375 -28.828125 89.59375 -28.828125 C 89.59375 -28.828125 89.695312 -28.929688 89.90625 -29.140625 C 90.050781 -29.429688 90.160156 -29.578125 90.234375 -29.578125 C 90.378906 -29.429688 90.453125 -29.503906 90.453125 -29.796875 C 90.453125 -30.003906 90.519531 -30.109375 90.65625 -30.109375 C 90.800781 -30.109375 90.835938 -30.144531 90.765625 -30.21875 C 90.765625 -30.289062 91.03125 -30.6875 91.5625 -31.40625 C 92.101562 -32.125 92.554688 -32.695312 92.921875 -33.125 C 93.203125 -33.40625 93.34375 -33.65625 93.34375 -33.875 C 93.488281 -34.164062 93.597656 -34.3125 93.671875 -34.3125 C 93.742188 -34.3125 93.78125 -34.414062 93.78125 -34.625 C 93.78125 -34.769531 93.816406 -34.804688 93.890625 -34.734375 C 93.890625 -34.734375 93.957031 -34.804688 94.09375 -34.953125 C 94.238281 -35.097656 94.382812 -35.273438 94.53125 -35.484375 C 94.75 -35.921875 95.035156 -36.316406 95.390625 -36.671875 L 95.828125 -37.109375 C 95.828125 -37.179688 95.988281 -37.445312 96.3125 -37.90625 C 96.632812 -38.375 96.988281 -38.859375 97.375 -39.359375 C 97.769531 -39.859375 98.003906 -40.144531 98.078125 -40.21875 L 98.515625 -40.765625 L 99.046875 -41.515625 L 99.703125 -42.484375 C 99.835938 -42.554688 100.117188 -42.914062 100.546875 -43.5625 C 100.984375 -44.207031 101.203125 -44.5625 101.203125 -44.625 C 101.347656 -44.769531 101.421875 -44.84375 101.421875 -44.84375 C 101.554688 -44.84375 101.734375 -45.039062 101.953125 -45.4375 C 102.171875 -45.832031 102.28125 -46.066406 102.28125 -46.140625 C 102.28125 -46.285156 102.316406 -46.359375 102.390625 -46.359375 C 102.523438 -46.210938 102.59375 -46.242188 102.59375 -46.453125 C 102.59375 -46.742188 102.664062 -46.816406 102.8125 -46.671875 C 102.8125 -46.671875 102.882812 -46.742188 103.03125 -46.890625 C 103.03125 -47.109375 103.207031 -47.394531 103.5625 -47.75 L 106.25 -51.40625 L 107.328125 -53.015625 C 107.328125 -53.085938 107.472656 -53.335938 107.765625 -53.765625 L 108.515625 -54.734375 L 108.84375 -55.28125 C 108.90625 -55.28125 108.988281 -55.382812 109.09375 -55.59375 C 109.207031 -55.8125 109.375 -56.03125 109.59375 -56.25 L 110.453125 -57.53125 L 111.09375 -58.609375 C 111.382812 -58.972656 111.757812 -59.507812 112.21875 -60.21875 C 112.6875 -60.9375 112.957031 -61.40625 113.03125 -61.625 L 114.109375 -63.125 C 114.328125 -63.488281 114.523438 -63.8125 114.703125 -64.09375 C 114.878906 -64.382812 114.96875 -64.566406 114.96875 -64.640625 C 115.039062 -64.710938 115.113281 -64.800781 115.1875 -64.90625 C 115.257812 -65.007812 115.328125 -65.097656 115.390625 -65.171875 C 115.609375 -65.316406 115.863281 -65.640625 116.15625 -66.140625 L 117.546875 -68.078125 C 117.765625 -68.429688 117.960938 -68.734375 118.140625 -68.984375 C 118.316406 -69.242188 118.367188 -69.375 118.296875 -69.375 C 118.296875 -69.4375 118.082031 -69.328125 117.65625 -69.046875 C 117.300781 -68.828125 116.800781 -68.578125 116.15625 -68.296875 C 115.582031 -68.003906 115.296875 -67.820312 115.296875 -67.75 C 115.296875 -67.75 115.257812 -67.726562 115.1875 -67.6875 C 115.113281 -67.65625 115.003906 -67.640625 114.859375 -67.640625 C 114.785156 -67.640625 114.675781 -67.601562 114.53125 -67.53125 C 114.394531 -67.46875 114.253906 -67.398438 114.109375 -67.328125 C 113.960938 -67.253906 113.742188 -67.144531 113.453125 -67 C 113.171875 -66.851562 112.921875 -66.710938 112.703125 -66.578125 C 112.421875 -66.503906 112.117188 -66.375 111.796875 -66.1875 C 111.472656 -66.007812 111.164062 -65.851562 110.875 -65.71875 L 109.90625 -65.171875 C 109.90625 -65.171875 109.632812 -65.0625 109.09375 -64.84375 C 108.5625 -64.632812 108.007812 -64.40625 107.4375 -64.15625 C 106.863281 -63.90625 106.503906 -63.707031 106.359375 -63.5625 L 105.9375 -63.34375 L 105.609375 -63.453125 L 104.859375 -63.015625 C 104.429688 -62.734375 104.21875 -62.664062 104.21875 -62.8125 C 104 -62.8125 103.78125 -62.738281 103.5625 -62.59375 C 103.488281 -62.519531 103.328125 -62.425781 103.078125 -62.3125 C 102.828125 -62.207031 102.5625 -62.085938 102.28125 -61.953125 C 102.0625 -61.878906 101.828125 -61.804688 101.578125 -61.734375 C 101.328125 -61.660156 101.128906 -61.585938 100.984375 -61.515625 C 100.628906 -61.296875 100.21875 -61.078125 99.75 -60.859375 C 99.28125 -60.648438 98.722656 -60.4375 98.078125 -60.21875 C 97.796875 -60.15625 97.53125 -60.066406 97.28125 -59.953125 C 97.03125 -59.847656 96.867188 -59.796875 96.796875 -59.796875 C 96.796875 -59.722656 96.722656 -59.6875 96.578125 -59.6875 C 96.578125 -59.757812 96.429688 -59.722656 96.140625 -59.578125 C 95.859375 -59.429688 95.679688 -59.359375 95.609375 -59.359375 L 94.859375 -59.15625 C 94.566406 -58.9375 94.316406 -58.828125 94.109375 -58.828125 C 93.890625 -58.898438 93.398438 -58.789062 92.640625 -58.5 C 91.890625 -58.21875 91.515625 -58.003906 91.515625 -57.859375 C 91.515625 -57.710938 91.410156 -57.640625 91.203125 -57.640625 C 91.128906 -57.710938 90.660156 -57.601562 89.796875 -57.3125 C 88.941406 -57.03125 88.515625 -56.816406 88.515625 -56.671875 C 88.515625 -56.597656 87.4375 -56.207031 85.28125 -55.5 L 84.109375 -55.0625 L 83.03125 -54.734375 C 83.03125 -54.734375 82.457031 -54.519531 81.3125 -54.09375 L 80.34375 -53.765625 C 80.125 -53.703125 79.566406 -53.523438 78.671875 -53.234375 C 77.773438 -52.953125 77.253906 -52.8125 77.109375 -52.8125 C 76.960938 -52.8125 76.75 -52.738281 76.46875 -52.59375 C 76.25 -52.375 76.035156 -52.265625 75.828125 -52.265625 L 74.09375 -51.84375 C 73.238281 -51.476562 72.703125 -51.296875 72.484375 -51.296875 L 72.15625 -51.296875 C 72.09375 -51.222656 71.644531 -51.039062 70.8125 -50.75 C 69.988281 -50.46875 68.21875 -49.9375 65.5 -49.15625 C 64.132812 -48.789062 63.378906 -48.535156 63.234375 -48.390625 L 62.8125 -48.390625 C 62.664062 -48.390625 62.445312 -48.320312 62.15625 -48.1875 C 61.875 -48.039062 61.695312 -47.96875 61.625 -47.96875 C 61.476562 -47.96875 60.507812 -47.71875 58.71875 -47.21875 L 54.203125 -46.03125 L 50.765625 -45.171875 C 50.328125 -45.097656 49.644531 -44.953125 48.71875 -44.734375 C 47.789062 -44.523438 46.910156 -44.328125 46.078125 -44.140625 C 45.253906 -43.960938 44.769531 -43.835938 44.625 -43.765625 C 44.5625 -43.691406 44.398438 -43.640625 44.140625 -43.609375 C 43.890625 -43.578125 43.625 -43.523438 43.34375 -43.453125 L 41.625 -43.125 C 41.476562 -43.050781 41.316406 -43.015625 41.140625 -43.015625 C 40.960938 -43.015625 40.835938 -43.015625 40.765625 -43.015625 C 40.546875 -43.015625 40.039062 -42.910156 39.25 -42.703125 L 37.75 -42.484375 C 37.675781 -42.484375 37.53125 -42.484375 37.3125 -42.484375 C 37.101562 -42.484375 36.925781 -42.410156 36.78125 -42.265625 L 35.0625 -41.9375 L 33.234375 -41.734375 C 32.660156 -41.585938 31.867188 -41.515625 30.859375 -41.515625 L 28.9375 -41.296875 L 28.28125 -41.296875 L 27.859375 -41.1875 L 26.234375 -41.1875 C 25.304688 -41.332031 24.695312 -41.332031 24.40625 -41.1875 C 24.125 -41.1875 23.570312 -41.203125 22.75 -41.234375 C 21.925781 -41.273438 21.257812 -41.332031 20.75 -41.40625 C 20.25 -41.550781 19.859375 -41.800781 19.578125 -42.15625 C 19.359375 -42.519531 19.25 -42.84375 19.25 -43.125 C 19.25 -43.476562 19.394531 -43.65625 19.6875 -43.65625 C 20.113281 -43.519531 20.4375 -43.378906 20.65625 -43.234375 C 21.15625 -42.804688 21.726562 -42.59375 22.375 -42.59375 L 23.765625 -42.59375 C 25.410156 -42.445312 26.988281 -42.445312 28.5 -42.59375 C 29 -42.59375 29.835938 -42.644531 31.015625 -42.75 C 32.203125 -42.851562 33.367188 -42.976562 34.515625 -43.125 C 35.671875 -43.269531 36.390625 -43.378906 36.671875 -43.453125 L 37.640625 -43.65625 L 39.359375 -43.875 C 39.722656 -43.945312 40.082031 -44 40.4375 -44.03125 C 40.789062 -44.070312 41.039062 -44.128906 41.1875 -44.203125 L 42.046875 -44.421875 C 42.191406 -44.421875 42.550781 -44.472656 43.125 -44.578125 C 43.695312 -44.679688 44.128906 -44.769531 44.421875 -44.84375 L 52.59375 -46.671875 C 53.664062 -46.960938 55.046875 -47.300781 56.734375 -47.6875 C 58.421875 -48.082031 60.050781 -48.492188 61.625 -48.921875 C 63.195312 -49.359375 64.414062 -49.722656 65.28125 -50.015625 L 70.546875 -51.515625 L 72.59375 -52.265625 L 73.34375 -52.484375 C 73.488281 -52.410156 73.578125 -52.390625 73.609375 -52.421875 C 73.648438 -52.460938 73.707031 -52.484375 73.78125 -52.484375 C 73.78125 -52.554688 74.207031 -52.734375 75.0625 -53.015625 C 75.425781 -53.085938 75.769531 -53.175781 76.09375 -53.28125 C 76.414062 -53.394531 76.613281 -53.488281 76.6875 -53.5625 L 77.109375 -53.671875 C 77.179688 -53.597656 77.445312 -53.628906 77.90625 -53.765625 C 78.375 -53.910156 78.863281 -54.09375 79.375 -54.3125 L 82.0625 -55.171875 L 87.546875 -57.109375 L 89.046875 -57.53125 C 89.984375 -57.894531 90.519531 -58.078125 90.65625 -58.078125 C 90.945312 -58.078125 91.234375 -58.179688 91.515625 -58.390625 C 91.878906 -58.609375 92.457031 -58.863281 93.25 -59.15625 C 93.601562 -59.226562 93.941406 -59.316406 94.265625 -59.421875 C 94.585938 -59.523438 94.785156 -59.613281 94.859375 -59.6875 L 95.71875 -60.125 L 102.28125 -62.59375 C 103.132812 -62.945312 103.597656 -63.160156 103.671875 -63.234375 C 103.742188 -63.304688 103.867188 -63.359375 104.046875 -63.390625 C 104.234375 -63.429688 104.394531 -63.488281 104.53125 -63.5625 L 105.390625 -63.875 C 105.535156 -64.019531 105.894531 -64.21875 106.46875 -64.46875 C 107.039062 -64.71875 107.6875 -64.988281 108.40625 -65.28125 L 109.59375 -65.921875 L 112.28125 -67.328125 C 113.351562 -67.898438 113.890625 -68.222656 113.890625 -68.296875 C 113.890625 -68.296875 113.90625 -68.3125 113.9375 -68.34375 C 113.976562 -68.382812 114.035156 -68.367188 114.109375 -68.296875 C 114.179688 -68.222656 114.46875 -68.328125 114.96875 -68.609375 C 115.1875 -68.753906 115.382812 -68.878906 115.5625 -68.984375 C 115.738281 -69.097656 115.828125 -69.15625 115.828125 -69.15625 C 115.898438 -69.15625 116.257812 -69.316406 116.90625 -69.640625 C 117.550781 -69.960938 118.015625 -70.226562 118.296875 -70.4375 C 118.441406 -70.582031 118.585938 -70.671875 118.734375 -70.703125 C 118.878906 -70.742188 118.953125 -70.765625 118.953125 -70.765625 C 119.085938 -70.765625 119.15625 -70.835938 119.15625 -70.984375 C 119.15625 -71.054688 119.335938 -71.160156 119.703125 -71.296875 C 119.847656 -71.296875 119.9375 -71.332031 119.96875 -71.40625 C 120 -71.476562 120.015625 -71.515625 120.015625 -71.515625 C 120.015625 -71.660156 120.050781 -71.695312 120.125 -71.625 C 120.269531 -71.625 120.414062 -71.695312 120.5625 -71.84375 L 121.203125 -72.59375 C 121.492188 -72.8125 121.90625 -73.242188 122.4375 -73.890625 C 122.976562 -74.535156 123.210938 -74.859375 123.140625 -74.859375 C 123.066406 -74.859375 123.242188 -74.984375 123.671875 -75.234375 C 124.109375 -75.484375 124.363281 -75.609375 124.4375 -75.609375 C 124.570312 -75.679688 124.691406 -75.625 124.796875 -75.4375 C 124.910156 -75.257812 124.96875 -75.03125 124.96875 -74.75 C 124.820312 -74.03125 124.359375 -73.382812 123.578125 -72.8125 C 123.140625 -72.445312 122.523438 -71.832031 121.734375 -70.96875 C 120.953125 -70.113281 120.378906 -69.4375 120.015625 -68.9375 L 118.734375 -67.21875 L 118.09375 -66.140625 L 117.21875 -64.953125 C 116.507812 -64.023438 115.867188 -63.078125 115.296875 -62.109375 C 114.722656 -61.140625 113.96875 -59.9375 113.03125 -58.5 L 112.0625 -57 L 108.515625 -51.9375 C 108.515625 -51.875 107.90625 -51.015625 106.6875 -49.359375 L 104 -45.703125 L 102.8125 -43.984375 L 101.3125 -41.828125 L 100.015625 -40 L 98.296875 -37.859375 L 92.703125 -30.21875 C 91.984375 -29.21875 91.316406 -28.300781 90.703125 -27.46875 C 90.097656 -26.644531 89.726562 -26.203125 89.59375 -26.140625 C 89.445312 -26.140625 89.375 -26.03125 89.375 -25.8125 L 89.15625 -25.484375 C 89.082031 -25.554688 88.796875 -25.269531 88.296875 -24.625 L 87.4375 -23.546875 C 87.21875 -23.335938 86.75 -22.800781 86.03125 -21.9375 C 85.320312 -21.082031 84.894531 -20.582031 84.75 -20.4375 C 84.675781 -20.363281 84.28125 -19.894531 83.5625 -19.03125 C 82.84375 -18.175781 82.304688 -17.566406 81.953125 -17.203125 L 80.875 -15.8125 C 80.226562 -15.019531 79.765625 -14.550781 79.484375 -14.40625 C 79.410156 -14.332031 79.316406 -14.222656 79.203125 -14.078125 C 79.097656 -13.941406 78.972656 -13.800781 78.828125 -13.65625 C 78.753906 -13.507812 78.59375 -13.3125 78.34375 -13.0625 C 78.09375 -12.8125 77.863281 -12.582031 77.65625 -12.375 L 74.640625 -9.46875 L 74 -8.8125 L 69.265625 -4.515625 L 68.5 -3.875 L 66.78125 -2.6875 L 64.84375 -1.296875 C 64.132812 -0.722656 63.039062 -0.0390625 61.5625 0.75 C 60.09375 1.539062 58.96875 2.078125 58.1875 2.359375 L 56.140625 3.21875 C 55.785156 3.363281 55.285156 3.546875 54.640625 3.765625 C 53.992188 3.984375 53.382812 4.160156 52.8125 4.296875 C 51.59375 4.585938 50.910156 4.804688 50.765625 4.953125 C 50.617188 5.085938 50.472656 5.125 50.328125 5.0625 C 50.117188 5.0625 49.941406 5.09375 49.796875 5.15625 L 45.8125 6.015625 C 45.53125 6.085938 44.742188 6.210938 43.453125 6.390625 C 42.160156 6.578125 41.191406 6.707031 40.546875 6.78125 L 38.71875 6.890625 C 38.425781 6.953125 37.796875 7 36.828125 7.03125 C 35.867188 7.070312 34.90625 7.070312 33.9375 7.03125 C 32.96875 7 32.265625 6.953125 31.828125 6.890625 Z M 31.828125 6.890625 "/></g></g><g style="fill:#000000;fill-opacity:1;"><g transform="translate(382.029777, 153.357768)"><path style="stroke:none" d="M 4.515625 -37 C 4.296875 -36.925781 4.078125 -36.992188 3.859375 -37.203125 C 3.648438 -37.421875 3.617188 -37.566406 3.765625 -37.640625 C 3.910156 -37.785156 3.984375 -38 3.984375 -38.28125 C 4.117188 -39 4.441406 -39.179688 4.953125 -38.828125 C 5.160156 -38.609375 5.265625 -38.425781 5.265625 -38.28125 C 5.335938 -38.070312 5.285156 -37.820312 5.109375 -37.53125 C 4.929688 -37.25 4.734375 -37.070312 4.515625 -37 Z M -1.609375 -29.25 C -2.679688 -29.175781 -3.21875 -29.460938 -3.21875 -30.109375 L -3.21875 -30.4375 C -3.21875 -31.363281 -2.289062 -32.617188 -0.4375 -34.203125 C 0.5 -34.847656 1.109375 -35.097656 1.390625 -34.953125 C 1.898438 -34.734375 1.546875 -34.125 0.328125 -33.125 L -1.5 -31.625 C -1.789062 -31.257812 -1.9375 -30.828125 -1.9375 -30.328125 C -1.71875 -30.253906 -1.445312 -30.253906 -1.125 -30.328125 C -0.800781 -30.398438 -0.640625 -30.4375 -0.640625 -30.4375 C 0.140625 -30.582031 1.316406 -30.976562 2.890625 -31.625 C 4.472656 -32.269531 6.445312 -33.09375 8.8125 -34.09375 L 9.03125 -34.203125 L 9.25 -34.203125 L 9.46875 -34.09375 C 9.820312 -33.945312 9.785156 -33.734375 9.359375 -33.453125 L 8.0625 -32.90625 L 3.328125 -30.765625 C 2.472656 -30.398438 1.578125 -30.070312 0.640625 -29.78125 C -0.285156 -29.5 -1.035156 -29.320312 -1.609375 -29.25 Z M -1.609375 -29.25 "/></g></g><g style="fill:#000000;fill-opacity:1;"><g transform="translate(391.063374, 153.357768)"><path style="stroke:none" d="M -4.734375 -22.15625 C -4.878906 -22.226562 -4.984375 -22.351562 -5.046875 -22.53125 C -5.117188 -22.707031 -5.191406 -23.082031 -5.265625 -23.65625 C -5.335938 -24.226562 -5.300781 -24.925781 -5.15625 -25.75 C -5.019531 -26.582031 -4.804688 -27.175781 -4.515625 -27.53125 C -4.367188 -27.957031 -4.296875 -28.207031 -4.296875 -28.28125 C -4.222656 -28.425781 -4.148438 -28.585938 -4.078125 -28.765625 C -4.015625 -28.941406 -3.875 -29.175781 -3.65625 -29.46875 C -3.363281 -29.820312 -3.09375 -30.210938 -2.84375 -30.640625 C -2.59375 -31.078125 -2.46875 -31.332031 -2.46875 -31.40625 C -2.46875 -31.476562 -2.445312 -31.53125 -2.40625 -31.5625 C -2.375 -31.601562 -2.359375 -31.585938 -2.359375 -31.515625 C -2.222656 -31.515625 -2.15625 -31.617188 -2.15625 -31.828125 C -2.15625 -31.972656 -2.082031 -32.046875 -1.9375 -32.046875 C -1.863281 -32.046875 -1.828125 -32.117188 -1.828125 -32.265625 L -1.5 -32.59375 C -1.363281 -32.59375 -1.257812 -32.695312 -1.1875 -32.90625 C -1.1875 -33.125 -1.148438 -33.234375 -1.078125 -33.234375 L -0.21875 -34.3125 C 0.28125 -34.957031 0.566406 -35.28125 0.640625 -35.28125 C 0.710938 -35.28125 0.75 -35.347656 0.75 -35.484375 C 0.75 -35.554688 0.929688 -35.773438 1.296875 -36.140625 L 1.71875 -36.671875 C 1.71875 -36.816406 1.863281 -37.03125 2.15625 -37.3125 L 1.9375 -37.3125 C 1.863281 -37.3125 1.71875 -37.421875 1.5 -37.640625 C 1.289062 -37.859375 1.1875 -38.003906 1.1875 -38.078125 C 1.1875 -38.285156 1.253906 -38.316406 1.390625 -38.171875 C 1.535156 -38.109375 1.804688 -38.144531 2.203125 -38.28125 C 2.597656 -38.425781 2.796875 -38.535156 2.796875 -38.609375 C 2.796875 -38.609375 2.8125 -38.625 2.84375 -38.65625 C 2.882812 -38.695312 2.941406 -38.679688 3.015625 -38.609375 C 3.015625 -38.609375 3.046875 -38.609375 3.109375 -38.609375 C 3.179688 -38.609375 3.253906 -38.644531 3.328125 -38.71875 L 5.484375 -40.875 C 5.773438 -41.082031 6.398438 -41.648438 7.359375 -42.578125 C 8.328125 -43.515625 9.097656 -44.234375 9.671875 -44.734375 C 11.109375 -45.953125 12.539062 -47.132812 13.96875 -48.28125 C 15.40625 -49.4375 16.804688 -50.515625 18.171875 -51.515625 C 18.671875 -51.867188 19.207031 -52.222656 19.78125 -52.578125 C 20.363281 -52.941406 20.90625 -53.269531 21.40625 -53.5625 C 21.832031 -53.914062 22.40625 -54.289062 23.125 -54.6875 C 23.84375 -55.082031 24.488281 -55.351562 25.0625 -55.5 C 25.632812 -55.707031 26.082031 -55.722656 26.40625 -55.546875 C 26.726562 -55.367188 26.816406 -55.066406 26.671875 -54.640625 C 26.597656 -54.347656 26.203125 -53.820312 25.484375 -53.0625 C 24.765625 -52.3125 23.992188 -51.578125 23.171875 -50.859375 C 22.347656 -50.148438 21.648438 -49.582031 21.078125 -49.15625 L 18.390625 -47 L 17 -45.921875 L 15.8125 -45.0625 L 14.734375 -44.3125 C 14.585938 -44.238281 14.117188 -43.953125 13.328125 -43.453125 C 12.546875 -42.953125 11.972656 -42.554688 11.609375 -42.265625 C 11.328125 -41.972656 10.96875 -41.703125 10.53125 -41.453125 C 10.101562 -41.203125 9.851562 -41.078125 9.78125 -41.078125 L 8.8125 -40.4375 C 8.382812 -40.144531 8.0625 -39.925781 7.84375 -39.78125 C 7.632812 -39.644531 7.28125 -39.429688 6.78125 -39.140625 L 4.84375 -37.859375 C 4.550781 -37.710938 4.332031 -37.566406 4.1875 -37.421875 C 4.1875 -37.347656 4.117188 -37.242188 3.984375 -37.109375 C 3.910156 -37.109375 3.492188 -36.625 2.734375 -35.65625 C 1.984375 -34.6875 1.160156 -33.609375 0.265625 -32.421875 C -0.628906 -31.242188 -1.328125 -30.296875 -1.828125 -29.578125 C -3.265625 -27.421875 -4.085938 -25.519531 -4.296875 -23.875 C -4.515625 -22.726562 -4.660156 -22.15625 -4.734375 -22.15625 Z M 6.984375 -40.328125 L 9.03125 -41.515625 L 9.46875 -41.828125 C 9.675781 -41.972656 10.117188 -42.28125 10.796875 -42.75 C 11.484375 -43.21875 11.972656 -43.59375 12.265625 -43.875 C 12.472656 -44.019531 12.828125 -44.269531 13.328125 -44.625 C 13.835938 -44.988281 14.195312 -45.207031 14.40625 -45.28125 C 14.625 -45.425781 15.195312 -45.835938 16.125 -46.515625 C 17.0625 -47.191406 17.742188 -47.710938 18.171875 -48.078125 L 18.828125 -48.5 C 18.890625 -48.5 19.425781 -48.929688 20.4375 -49.796875 L 22.484375 -51.40625 L 23.984375 -52.8125 L 24.3125 -53.125 L 24.515625 -53.453125 L 24.625 -53.5625 L 24.953125 -53.765625 L 24.953125 -53.875 L 25.171875 -54.09375 C 25.242188 -54.164062 25.28125 -54.21875 25.28125 -54.25 C 25.28125 -54.289062 25.28125 -54.3125 25.28125 -54.3125 C 25.28125 -54.59375 25.207031 -54.664062 25.0625 -54.53125 C 24.84375 -54.53125 24.695312 -54.492188 24.625 -54.421875 L 24.40625 -54.3125 L 23.875 -53.984375 L 23.125 -53.5625 L 21.40625 -52.484375 L 20.75 -52.046875 L 19.890625 -51.296875 L 18.28125 -50.21875 L 14.40625 -47.109375 C 14.332031 -47.109375 13.8125 -46.691406 12.84375 -45.859375 C 11.882812 -45.035156 10.882812 -44.15625 9.84375 -43.21875 C 8.800781 -42.289062 8.101562 -41.648438 7.75 -41.296875 C 7.3125 -40.796875 7.039062 -40.488281 6.9375 -40.375 C 6.832031 -40.269531 6.847656 -40.253906 6.984375 -40.328125 Z M 6.984375 -40.328125 "/></g></g><g style="fill:#000000;fill-opacity:1;"><g transform="translate(400.527142, 153.357768)"><path style="stroke:none" d="M -0.21875 -27.640625 C -1.289062 -27.492188 -1.753906 -28.210938 -1.609375 -29.796875 C -1.460938 -30.867188 -0.960938 -32.300781 -0.109375 -34.09375 C -0.0351562 -34.164062 0.0351562 -34.378906 0.109375 -34.734375 C 0.179688 -35.097656 0.253906 -35.316406 0.328125 -35.390625 C 0.535156 -35.960938 0.75 -36.25 0.96875 -36.25 C 1.113281 -36.3125 1.21875 -36.34375 1.28125 -36.34375 C 1.351562 -36.34375 1.390625 -36.34375 1.390625 -36.34375 L 1.5 -36.03125 C 1.644531 -35.738281 1.628906 -35.34375 1.453125 -34.84375 C 1.273438 -34.34375 1.039062 -33.84375 0.75 -33.34375 C 0.394531 -32.625 0.09375 -31.78125 -0.15625 -30.8125 C -0.40625 -29.84375 -0.5 -29.21875 -0.4375 -28.9375 C -0.363281 -28.644531 0.175781 -29 1.1875 -30 C 1.6875 -30.507812 2.039062 -30.921875 2.25 -31.234375 C 2.46875 -31.554688 2.722656 -32.039062 3.015625 -32.6875 C 3.441406 -33.476562 3.65625 -34.019531 3.65625 -34.3125 C 3.582031 -34.445312 3.722656 -34.550781 4.078125 -34.625 C 4.441406 -34.695312 4.984375 -34.59375 5.703125 -34.3125 C 6.703125 -33.875 7.722656 -33.53125 8.765625 -33.28125 C 9.804688 -33.03125 11.078125 -32.867188 12.578125 -32.796875 C 14.804688 -32.796875 16.507812 -32.882812 17.6875 -33.0625 C 18.875 -33.25 19.609375 -33.378906 19.890625 -33.453125 C 20.460938 -33.585938 20.800781 -33.707031 20.90625 -33.8125 C 21.019531 -33.925781 21.1875 -33.835938 21.40625 -33.546875 C 21.40625 -33.265625 20.757812 -32.945312 19.46875 -32.59375 L 18.28125 -32.375 C 18.0625 -32.375 17.554688 -32.316406 16.765625 -32.203125 C 15.984375 -32.097656 15.414062 -32.046875 15.0625 -32.046875 L 13.015625 -32.046875 C 11.796875 -32.046875 10.578125 -32.15625 9.359375 -32.375 L 7.84375 -32.59375 L 6.015625 -33.015625 C 5.878906 -33.015625 5.753906 -33.066406 5.640625 -33.171875 C 5.535156 -33.285156 5.375 -33.304688 5.15625 -33.234375 C 4.65625 -33.234375 4.332031 -33.050781 4.1875 -32.6875 C 3.976562 -32.1875 3.617188 -31.59375 3.109375 -30.90625 C 2.609375 -30.226562 2.289062 -29.820312 2.15625 -29.6875 C 1.863281 -29.1875 1.445312 -28.71875 0.90625 -28.28125 C 0.375 -27.851562 0 -27.640625 -0.21875 -27.640625 Z M -0.21875 -27.640625 "/></g></g><g style="fill:#000000;fill-opacity:1;"><g transform="translate(421.928162, 153.357768)"><path style="stroke:none" d="M 2.359375 -29.359375 C 2.003906 -29.359375 1.71875 -29.535156 1.5 -29.890625 C 1.21875 -30.253906 1.148438 -30.648438 1.296875 -31.078125 C 1.296875 -31.503906 1.398438 -31.863281 1.609375 -32.15625 L 1.9375 -32.90625 C 1.9375 -32.976562 1.664062 -32.851562 1.125 -32.53125 C 0.59375 -32.207031 0.109375 -31.867188 -0.328125 -31.515625 C -0.753906 -31.222656 -1.378906 -30.863281 -2.203125 -30.4375 C -3.023438 -30.007812 -3.582031 -29.796875 -3.875 -29.796875 C -4.519531 -29.796875 -4.84375 -30.007812 -4.84375 -30.4375 C -4.84375 -30.65625 -4.59375 -30.976562 -4.09375 -31.40625 C -3.445312 -31.976562 -2.65625 -32.550781 -1.71875 -33.125 C -0.789062 -33.695312 0.0664062 -34.195312 0.859375 -34.625 C 1.796875 -35.132812 2.390625 -35.421875 2.640625 -35.484375 C 2.890625 -35.554688 3.050781 -35.488281 3.125 -35.28125 C 3.125 -35.132812 3.300781 -35.0625 3.65625 -35.0625 C 4.300781 -35.0625 4.476562 -34.828125 4.1875 -34.359375 C 3.90625 -33.890625 3.65625 -33.515625 3.4375 -33.234375 C 3.15625 -32.941406 2.890625 -32.523438 2.640625 -31.984375 C 2.390625 -31.453125 2.367188 -30.9375 2.578125 -30.4375 C 2.648438 -30.21875 2.921875 -30.160156 3.390625 -30.265625 C 3.859375 -30.378906 4.09375 -30.4375 4.09375 -30.4375 C 4.800781 -30.582031 5.941406 -30.976562 7.515625 -31.625 C 9.097656 -32.269531 11.070312 -33.09375 13.4375 -34.09375 L 13.65625 -34.203125 L 13.984375 -34.203125 L 14.09375 -34.09375 C 14.226562 -34.019531 14.296875 -33.925781 14.296875 -33.8125 C 14.296875 -33.707031 14.226562 -33.617188 14.09375 -33.546875 L 7.953125 -30.765625 C 6.953125 -30.253906 6.039062 -29.890625 5.21875 -29.671875 C 4.394531 -29.460938 3.984375 -29.359375 3.984375 -29.359375 L 3.65625 -29.359375 C 3.226562 -29.285156 2.796875 -29.285156 2.359375 -29.359375 Z M -3.65625 -30.765625 L -3.015625 -30.96875 C -2.578125 -31.1875 -2 -31.507812 -1.28125 -31.9375 C -0.570312 -32.375 -0.179688 -32.625 -0.109375 -32.6875 C 0.179688 -32.976562 0.679688 -33.300781 1.390625 -33.65625 C 1.828125 -33.800781 2.046875 -33.945312 2.046875 -34.09375 C 2.046875 -34.238281 1.972656 -34.289062 1.828125 -34.25 C 1.679688 -34.21875 1.320312 -34.019531 0.75 -33.65625 C 0.03125 -33.375 -0.679688 -32.976562 -1.390625 -32.46875 C -2.109375 -31.96875 -2.648438 -31.539062 -3.015625 -31.1875 Z M -3.65625 -30.765625 "/></g></g><g style="fill:#000000;fill-opacity:1;"><g transform="translate(363.966807, 150.841288)"><path style="stroke:none" d="M 2.40625 -3.953125 L 2.890625 -3.953125 C 3.367188 -3.953125 3.71875 -4.03125 3.9375 -4.1875 C 4.164062 -4.351562 4.28125 -4.609375 4.28125 -4.953125 C 4.28125 -5.285156 4.164062 -5.519531 3.9375 -5.65625 C 3.707031 -5.800781 3.347656 -5.875 2.859375 -5.875 L 2.40625 -5.875 Z M 2.40625 -2.734375 L 2.40625 0 L 0.890625 0 L 0.890625 -7.109375 L 2.96875 -7.109375 C 3.9375 -7.109375 4.648438 -6.929688 5.109375 -6.578125 C 5.578125 -6.234375 5.8125 -5.703125 5.8125 -4.984375 C 5.8125 -4.566406 5.695312 -4.191406 5.46875 -3.859375 C 5.238281 -3.535156 4.910156 -3.28125 4.484375 -3.09375 C 5.554688 -1.5 6.253906 -0.46875 6.578125 0 L 4.90625 0 L 3.203125 -2.734375 Z M 2.40625 -2.734375 "/></g></g><g style="fill:#000000;fill-opacity:1;"><g transform="translate(375.5291, 150.841288)"><path style="stroke:none" d="M 5 0 L 0.890625 0 L 0.890625 -7.109375 L 5 -7.109375 L 5 -5.875 L 2.40625 -5.875 L 2.40625 -4.3125 L 4.8125 -4.3125 L 4.8125 -3.078125 L 2.40625 -3.078125 L 2.40625 -1.25 L 5 -1.25 Z M 5 0 "/></g></g><g style="fill:#000000;fill-opacity:1;"><g transform="translate(386.093979, 150.841288)"><path style="stroke:none" d="M 5.25 0 L 4.734375 -1.6875 L 2.140625 -1.6875 L 1.625 0 L 0 0 L 2.515625 -7.140625 L 4.359375 -7.140625 L 6.875 0 Z M 4.375 -2.953125 C 3.894531 -4.492188 3.625 -5.363281 3.5625 -5.5625 C 3.507812 -5.757812 3.46875 -5.921875 3.4375 -6.046875 C 3.332031 -5.628906 3.023438 -4.597656 2.515625 -2.953125 Z M 4.375 -2.953125 "/></g></g><g style="fill:#000000;fill-opacity:1;"><g transform="translate(397.95307, 150.841288)"><path style="stroke:none" d="M 0.890625 0 L 0.890625 -7.109375 L 2.40625 -7.109375 L 2.40625 -1.25 L 5.296875 -1.25 L 5.296875 0 Z M 0.890625 0 "/></g></g><g style="fill:#000000;fill-opacity:1;"><g transform="translate(408.566603, 150.841288)"><path style="stroke:none" d=""/></g></g><g style="fill:#000000;fill-opacity:1;"><g transform="translate(416.13922, 150.841288)"><path style="stroke:none" d="M 5 0 L 0.890625 0 L 0.890625 -7.109375 L 5 -7.109375 L 5 -5.875 L 2.40625 -5.875 L 2.40625 -4.3125 L 4.8125 -4.3125 L 4.8125 -3.078125 L 2.40625 -3.078125 L 2.40625 -1.25 L 5 -1.25 Z M 5 0 "/></g></g><g style="fill:#000000;fill-opacity:1;"><g transform="translate(426.704099, 150.841288)"><path style="stroke:none" d="M 5.09375 -1.96875 C 5.09375 -1.332031 4.859375 -0.828125 4.390625 -0.453125 C 3.929688 -0.0859375 3.289062 0.09375 2.46875 0.09375 C 1.707031 0.09375 1.035156 -0.046875 0.453125 -0.328125 L 0.453125 -1.734375 C 0.929688 -1.515625 1.335938 -1.363281 1.671875 -1.28125 C 2.003906 -1.195312 2.3125 -1.15625 2.59375 -1.15625 C 2.925781 -1.15625 3.175781 -1.21875 3.34375 -1.34375 C 3.519531 -1.46875 3.609375 -1.65625 3.609375 -1.90625 C 3.609375 -2.039062 3.570312 -2.160156 3.5 -2.265625 C 3.425781 -2.378906 3.3125 -2.484375 3.15625 -2.578125 C 3.007812 -2.679688 2.703125 -2.847656 2.234375 -3.078125 C 1.796875 -3.273438 1.46875 -3.46875 1.25 -3.65625 C 1.039062 -3.84375 0.867188 -4.0625 0.734375 -4.3125 C 0.609375 -4.5625 0.546875 -4.851562 0.546875 -5.1875 C 0.546875 -5.820312 0.757812 -6.316406 1.1875 -6.671875 C 1.613281 -7.035156 2.203125 -7.21875 2.953125 -7.21875 C 3.316406 -7.21875 3.664062 -7.171875 4 -7.078125 C 4.34375 -6.992188 4.695312 -6.875 5.0625 -6.71875 L 4.578125 -5.546875 C 4.191406 -5.703125 3.875 -5.8125 3.625 -5.875 C 3.382812 -5.9375 3.144531 -5.96875 2.90625 -5.96875 C 2.613281 -5.96875 2.390625 -5.898438 2.234375 -5.765625 C 2.085938 -5.628906 2.015625 -5.457031 2.015625 -5.25 C 2.015625 -5.113281 2.046875 -4.992188 2.109375 -4.890625 C 2.171875 -4.796875 2.269531 -4.703125 2.40625 -4.609375 C 2.539062 -4.515625 2.859375 -4.347656 3.359375 -4.109375 C 4.023438 -3.785156 4.476562 -3.460938 4.71875 -3.140625 C 4.96875 -2.828125 5.09375 -2.4375 5.09375 -1.96875 Z M 5.09375 -1.96875 "/></g></g><g style="fill:#000000;fill-opacity:1;"><g transform="translate(437.176528, 150.841288)"><path style="stroke:none" d="M 3.640625 0 L 2.125 0 L 2.125 -5.859375 L 0.203125 -5.859375 L 0.203125 -7.109375 L 5.578125 -7.109375 L 5.578125 -5.859375 L 3.640625 -5.859375 Z M 3.640625 0 "/></g></g><g style="fill:#000000;fill-opacity:1;"><g transform="translate(447.931155, 150.841288)"><path style="stroke:none" d="M 5.25 0 L 4.734375 -1.6875 L 2.140625 -1.6875 L 1.625 0 L 0 0 L 2.515625 -7.140625 L 4.359375 -7.140625 L 6.875 0 Z M 4.375 -2.953125 C 3.894531 -4.492188 3.625 -5.363281 3.5625 -5.5625 C 3.507812 -5.757812 3.46875 -5.921875 3.4375 -6.046875 C 3.332031 -5.628906 3.023438 -4.597656 2.515625 -2.953125 Z M 4.375 -2.953125 "/></g></g><g style="fill:#000000;fill-opacity:1;"><g transform="translate(459.790246, 150.841288)"><path style="stroke:none" d="M 3.640625 0 L 2.125 0 L 2.125 -5.859375 L 0.203125 -5.859375 L 0.203125 -7.109375 L 5.578125 -7.109375 L 5.578125 -5.859375 L 3.640625 -5.859375 Z M 3.640625 0 "/></g></g><g style="fill:#000000;fill-opacity:1;"><g transform="translate(470.544872, 150.841288)"><path style="stroke:none" d="M 5 0 L 0.890625 0 L 0.890625 -7.109375 L 5 -7.109375 L 5 -5.875 L 2.40625 -5.875 L 2.40625 -4.3125 L 4.8125 -4.3125 L 4.8125 -3.078125 L 2.40625 -3.078125 L 2.40625 -1.25 L 5 -1.25 Z M 5 0 "/></g></g><g style="fill:#000000;fill-opacity:1;"><g transform="translate(481.109751, 150.841288)"><path style="stroke:none" d=""/></g></g><g style="fill:#000000;fill-opacity:1;"><g transform="translate(488.682367, 150.841288)"><path style="stroke:none" d="M 5.25 0 L 4.734375 -1.6875 L 2.140625 -1.6875 L 1.625 0 L 0 0 L 2.515625 -7.140625 L 4.359375 -7.140625 L 6.875 0 Z M 4.375 -2.953125 C 3.894531 -4.492188 3.625 -5.363281 3.5625 -5.5625 C 3.507812 -5.757812 3.46875 -5.921875 3.4375 -6.046875 C 3.332031 -5.628906 3.023438 -4.597656 2.515625 -2.953125 Z M 4.375 -2.953125 "/></g></g><g style="fill:#000000;fill-opacity:1;"><g transform="translate(500.541458, 150.841288)"><path style="stroke:none" d="M 6.796875 -3.625 C 6.796875 -2.457031 6.460938 -1.5625 5.796875 -0.9375 C 5.128906 -0.3125 4.164062 0 2.90625 0 L 0.890625 0 L 0.890625 -7.109375 L 3.125 -7.109375 C 4.289062 -7.109375 5.191406 -6.800781 5.828125 -6.1875 C 6.472656 -5.582031 6.796875 -4.726562 6.796875 -3.625 Z M 5.234375 -3.59375 C 5.234375 -5.113281 4.554688 -5.875 3.203125 -5.875 L 2.40625 -5.875 L 2.40625 -1.25 L 3.046875 -1.25 C 4.503906 -1.25 5.234375 -2.03125 5.234375 -3.59375 Z M 5.234375 -3.59375 "/></g></g><g style="fill:#000000;fill-opacity:1;"><g transform="translate(512.901686, 150.841288)"><path style="stroke:none" d="M 4.953125 -7.109375 L 6.484375 -7.109375 L 4.0625 0 L 2.421875 0 L 0 -7.109375 L 1.53125 -7.109375 L 2.859375 -2.875 C 2.929688 -2.625 3.007812 -2.332031 3.09375 -2 C 3.175781 -1.675781 3.222656 -1.445312 3.234375 -1.3125 C 3.273438 -1.613281 3.398438 -2.132812 3.609375 -2.875 Z M 4.953125 -7.109375 "/></g></g><g style="fill:#000000;fill-opacity:1;"><g transform="translate(524.361809, 150.841288)"><path style="stroke:none" d="M 0.890625 0 L 0.890625 -7.109375 L 2.40625 -7.109375 L 2.40625 0 Z M 0.890625 0 "/></g></g><g style="fill:#000000;fill-opacity:1;"><g transform="translate(532.644782, 150.841288)"><path style="stroke:none" d="M 5.09375 -1.96875 C 5.09375 -1.332031 4.859375 -0.828125 4.390625 -0.453125 C 3.929688 -0.0859375 3.289062 0.09375 2.46875 0.09375 C 1.707031 0.09375 1.035156 -0.046875 0.453125 -0.328125 L 0.453125 -1.734375 C 0.929688 -1.515625 1.335938 -1.363281 1.671875 -1.28125 C 2.003906 -1.195312 2.3125 -1.15625 2.59375 -1.15625 C 2.925781 -1.15625 3.175781 -1.21875 3.34375 -1.34375 C 3.519531 -1.46875 3.609375 -1.65625 3.609375 -1.90625 C 3.609375 -2.039062 3.570312 -2.160156 3.5 -2.265625 C 3.425781 -2.378906 3.3125 -2.484375 3.15625 -2.578125 C 3.007812 -2.679688 2.703125 -2.847656 2.234375 -3.078125 C 1.796875 -3.273438 1.46875 -3.46875 1.25 -3.65625 C 1.039062 -3.84375 0.867188 -4.0625 0.734375 -4.3125 C 0.609375 -4.5625 0.546875 -4.851562 0.546875 -5.1875 C 0.546875 -5.820312 0.757812 -6.316406 1.1875 -6.671875 C 1.613281 -7.035156 2.203125 -7.21875 2.953125 -7.21875 C 3.316406 -7.21875 3.664062 -7.171875 4 -7.078125 C 4.34375 -6.992188 4.695312 -6.875 5.0625 -6.71875 L 4.578125 -5.546875 C 4.191406 -5.703125 3.875 -5.8125 3.625 -5.875 C 3.382812 -5.9375 3.144531 -5.96875 2.90625 -5.96875 C 2.613281 -5.96875 2.390625 -5.898438 2.234375 -5.765625 C 2.085938 -5.628906 2.015625 -5.457031 2.015625 -5.25 C 2.015625 -5.113281 2.046875 -4.992188 2.109375 -4.890625 C 2.171875 -4.796875 2.269531 -4.703125 2.40625 -4.609375 C 2.539062 -4.515625 2.859375 -4.347656 3.359375 -4.109375 C 4.023438 -3.785156 4.476562 -3.460938 4.71875 -3.140625 C 4.96875 -2.828125 5.09375 -2.4375 5.09375 -1.96875 Z M 5.09375 -1.96875 "/></g></g><g style="fill:#000000;fill-opacity:1;"><g transform="translate(543.117212, 150.841288)"><path style="stroke:none" d="M 7.359375 -3.5625 C 7.359375 -2.382812 7.066406 -1.476562 6.484375 -0.84375 C 5.898438 -0.21875 5.0625 0.09375 3.96875 0.09375 C 2.875 0.09375 2.035156 -0.21875 1.453125 -0.84375 C 0.867188 -1.476562 0.578125 -2.390625 0.578125 -3.578125 C 0.578125 -4.765625 0.867188 -5.671875 1.453125 -6.296875 C 2.046875 -6.921875 2.890625 -7.234375 3.984375 -7.234375 C 5.066406 -7.234375 5.898438 -6.914062 6.484375 -6.28125 C 7.066406 -5.65625 7.359375 -4.75 7.359375 -3.5625 Z M 2.15625 -3.5625 C 2.15625 -2.769531 2.304688 -2.171875 2.609375 -1.765625 C 2.910156 -1.367188 3.363281 -1.171875 3.96875 -1.171875 C 5.164062 -1.171875 5.765625 -1.96875 5.765625 -3.5625 C 5.765625 -5.164062 5.171875 -5.96875 3.984375 -5.96875 C 3.378906 -5.96875 2.921875 -5.765625 2.609375 -5.359375 C 2.304688 -4.960938 2.15625 -4.363281 2.15625 -3.5625 Z M 2.15625 -3.5625 "/></g></g><g style="fill:#000000;fill-opacity:1;"><g transform="translate(556.032102, 150.841288)"><path style="stroke:none" d="M 2.40625 -3.953125 L 2.890625 -3.953125 C 3.367188 -3.953125 3.71875 -4.03125 3.9375 -4.1875 C 4.164062 -4.351562 4.28125 -4.609375 4.28125 -4.953125 C 4.28125 -5.285156 4.164062 -5.519531 3.9375 -5.65625 C 3.707031 -5.800781 3.347656 -5.875 2.859375 -5.875 L 2.40625 -5.875 Z M 2.40625 -2.734375 L 2.40625 0 L 0.890625 0 L 0.890625 -7.109375 L 2.96875 -7.109375 C 3.9375 -7.109375 4.648438 -6.929688 5.109375 -6.578125 C 5.578125 -6.234375 5.8125 -5.703125 5.8125 -4.984375 C 5.8125 -4.566406 5.695312 -4.191406 5.46875 -3.859375 C 5.238281 -3.535156 4.910156 -3.28125 4.484375 -3.09375 C 5.554688 -1.5 6.253906 -0.46875 6.578125 0 L 4.90625 0 L 3.203125 -2.734375 Z M 2.40625 -2.734375 "/></g></g></g></svg>